<svg id="Layer_1" data-name="Layer 1" xmlns="http://www.w3.org/2000/svg" viewBox="0 0 85.78 94.6"><defs><style>.cls-1{fill:#fff;}</style></defs><title>Artboard 1</title><path class="cls-1" d="M85.78,65H74V7.39A7.4,7.4,0,0,0,66.56,0H10.39a1.53,1.53,0,0,0-.3,0A7.39,7.39,0,0,0,3,7.39v4.43H14.83V69.47a7.4,7.4,0,0,0,7.39,7.39H78.39a7.4,7.4,0,0,0,7.39-7.39Zm-3,2.95v1.48a4.4,4.4,0,0,1-4.43,4.44H27.77a7.21,7.21,0,0,0,1.84-4.44V68ZM71,7.39V65H26.65v4.43a4.44,4.44,0,1,1-8.87,0V7.39A7.3,7.3,0,0,0,16.26,3h50.3A4.4,4.4,0,0,1,71,7.39ZM71,81.3a1.48,1.48,0,0,0-1.48-1.48H16.31a1.48,1.48,0,0,0-1.48,1.48V93.12a1.48,1.48,0,0,0,1.48,1.48H69.52A1.48,1.48,0,0,0,71,93.12Zm-3,1.47v8.87H17.78V82.77h3v5.92h3V82.77h2.95v3h3v-3h3v5.92h3V82.77h3v3h3v-3h3v5.92h3V82.77H50.3v3h3v-3h3v5.92h3V82.77h3v3h2.95v-3Zm-3-69.47a1.47,1.47,0,0,0-1.47-1.47H25.17A1.49,1.49,0,0,0,23.7,13.3V57.65a1.47,1.47,0,0,0,1.47,1.47H63.61a1.47,1.47,0,0,0,1.47-1.47v-31H62.13v5.91H53.25v2.95h8.88v20.7H44.39V47.3H56.22v-3H44.39V38.43h-3V56.17H26.65v-3H37a1.48,1.48,0,0,0,1.48-1.48V39.91A1.48,1.48,0,0,0,37,38.43H26.65v-3H47.2V32.52H26.65V14.78H38.48V26.61h3V14.78h20.7v5.91h2.95ZM35.52,41.39v8.87H26.65V41.39Zm-20.69-34V8.87H6V7.39a4.44,4.44,0,0,1,8.87,0ZM12,31a1.62,1.62,0,0,0-.16-.62l-4.53-8.8a1.48,1.48,0,0,0-2-.63,1.44,1.44,0,0,0-.64.65L.16,30.39A1.48,1.48,0,0,0,0,31.1V56.18a.76.76,0,0,0,0,.15v3.19C0,62.41,2.06,65,4.87,65H7.11c2.81,0,4.83-2.62,4.83-5.48V56.14h0l-.1-24.61A1.54,1.54,0,0,0,12,31ZM9,54.67H7.37l.06-22.09H8.91Zm0,3v1.85H9A2.28,2.28,0,0,1,7.1,62H4.86c-.93,0-1.9-1-1.9-2.49V57.66ZM8.06,29.56H3.89L6,25.49ZM4.47,32.61,4.41,54.69H3V32.61Z"/></svg>