<svg id="Layer_1" data-name="Layer 1" xmlns="http://www.w3.org/2000/svg" viewBox="0 0 101.13 98.78"><defs><style>.cls-1{fill:#fff;}</style></defs><title>Artboard 1</title><path class="cls-1" d="M21.94,39.14A16.65,16.65,0,0,0,46.83,53.59v-.8l-1.72-2.18L45,50.5a12.72,12.72,0,0,1-6.54,1.72,13,13,0,0,1-4-25.47,8.15,8.15,0,0,1,1.83-4A16.4,16.4,0,0,0,21.94,39.14Z"/><path class="cls-1" d="M24,65a1.54,1.54,0,0,0-1.83.11L18.5,67.59a49.64,49.64,0,0,1-8.84-8.84l2.64-3.9A1.76,1.76,0,0,0,12.42,53,27.43,27.43,0,0,1,10,46.94a1.71,1.71,0,0,0-1.38-1.26l-4.82-.92a45.1,45.1,0,0,1,0-12.39l5.17-1a1.72,1.72,0,0,0,1.37-1.26,25.76,25.76,0,0,1,2.41-5.51,1.57,1.57,0,0,0-.11-1.83l-3-4.36A49.59,49.59,0,0,1,18.5,9.55l4.7,3.21a1.76,1.76,0,0,0,1.83.11,33.37,33.37,0,0,1,5.16-2.17,1.74,1.74,0,0,0,1.27-1.38l1-5.51a45.1,45.1,0,0,1,12.39,0l1,5.39A24.28,24.28,0,0,1,49,6.57L48.09,2A1.72,1.72,0,0,0,46.6.6a53.3,53.3,0,0,0-16,0A1.87,1.87,0,0,0,29.16,2L28,7.71A26.56,26.56,0,0,0,24.23,9.2L19.41,5.88a1.71,1.71,0,0,0-2.06,0A51.87,51.87,0,0,0,6.11,17.12a1.71,1.71,0,0,0,0,2.06L9.2,23.77c-.68,1.38-1.26,2.75-1.83,4.13L2,28.93A1.72,1.72,0,0,0,.6,30.42a53.3,53.3,0,0,0,0,15.95A1.86,1.86,0,0,0,2,47.86l4.93.92a33.44,33.44,0,0,0,1.84,4.7L6,57.61a1.71,1.71,0,0,0,0,2.06A52.09,52.09,0,0,0,17.23,70.91a1.72,1.72,0,0,0,2.07,0l3.9-2.64c1,.58,2.18,1,3.21,1.5a28.76,28.76,0,0,1,1.49-3.22A16.11,16.11,0,0,1,24,65Z"/><path class="cls-1" d="M98.21,76.19l-.69-3.1V73A15.34,15.34,0,0,0,90.3,63c-.12,0-.12-.12-.23-.12a1,1,0,0,0-.46-.23c-.23-.11-.35-.23-.58-.23s-.11-.11-.22-.11A5.5,5.5,0,0,0,88,62h-.46L80,59.33h0a5.38,5.38,0,0,1-.23,1.37l-.57,2.07,6.08,2.06-1.38,12v.46h-12l.57-2.41h-.68a6.33,6.33,0,0,1-2.87-.81l-1,4.59h0l-.58,2.64V95.23H65.18V70.45l-1.72-1.83-1.72,1.83V95.23H59.67V81.46l-1.6-7.22a5.27,5.27,0,0,1-3.44.8l.57,2.41H42.81V77L41.55,64.83l6.08-2.06-.57-2.07a5.38,5.38,0,0,1-.23-1.37h0L39.26,62H38.8l-.69.34c-.12,0-.23.11-.35.11s-.34.12-.57.23-.34.23-.57.35-.12.11-.23.11a15.33,15.33,0,0,0-7.23,10.1L25.38,90.53a1.79,1.79,0,0,0,1.14,2.06c.92.34,1.72.57,2.64.92.23.11.46.11.69.23.69.23,1.49.46,2.18.69.23.11.46.11.57.23.92.22,1.72.45,2.64.68h.12l2.75.69c.11,0,.23,0,.23.12h.23c.23,0,.34.11.57.11l1.72.34c.35.12.69.12,1.15.23l2,.35c.46.11.92.11,1.37.23.69.11,1.27.23,2,.34.35,0,.69.12,1.15.12s1.15.11,1.72.23c.35,0,.69.11,1,.11a19.6,19.6,0,0,0,2.64.23h.12c.91.11,1.83.11,2.86.23h.69c.81,0,1.49.11,2.3.11h7a16.11,16.11,0,0,0,2.3-.11h.69a23.35,23.35,0,0,0,2.75-.23h.11c.92-.11,1.84-.11,2.64-.23.35,0,.69-.11,1-.11.58-.12,1.15-.12,1.72-.23.35,0,.81-.12,1.15-.12L81,97.41c.45-.12.91-.12,1.49-.23l2-.35c.34-.11.8-.11,1.14-.23l1.72-.34c.23,0,.35-.11.58-.11s.23,0,.23-.12.23,0,.23-.11l2.75-.69h.11c.92-.23,1.72-.46,2.64-.69.23-.11.35-.11.58-.23.68-.23,1.49-.46,2.17-.69.23-.11.46-.11.69-.23.92-.34,1.84-.57,2.64-.91a1.81,1.81,0,0,0,1.15-2.07ZM93.85,90.87a2.77,2.77,0,0,1-.92.23,32.84,32.84,0,0,1-3.55.92h-.12L87.43,77l1.15-10.78a.88.88,0,0,0,.45.23c.12.11.23.11.35.23s.46.34.69.57.34.35.57.46L91,68a4.84,4.84,0,0,1,.69.81c.12.11.23.23.23.34.23.23.35.58.58.8s.23.35.34.58.23.34.34.57.35.69.46,1c0,.12,0,.12.12.23.11.46.23.92.34,1.38l3.44,15.83C96.26,90.07,95,90.41,93.85,90.87Zm-9.52-10,.46,3.56h-14V81.92l.23-1ZM70.8,88H85.25l.57,4.82c-.23,0-.34.11-.57.11s-.34.12-.46.12l-3.9.69c-.23,0-.46.11-.69.11a31.53,31.53,0,0,1-3.32.46c-.23,0-.58.12-.81.12-1.26.11-2.52.23-3.9.34H70.8ZM56,95H54.63l-3.9-.34c-.23,0-.58-.12-.81-.12-1.14-.11-2.18-.34-3.32-.46-.23,0-.46-.11-.69-.11L42,93.28c-.23,0-.35-.12-.58-.12s-.34-.11-.57-.11l.57-4.82H55.89V95Zm-.23-14.11.23,1v2.53H41.89l.46-3.56ZM39.26,77,37.42,92h-.11c-1.15-.35-2.3-.58-3.56-.92a2.54,2.54,0,0,0-.92-.23,30.73,30.73,0,0,1-3.55-1.15h0l3.44-15.83.34-1.37c0-.12,0-.12.12-.23a3.75,3.75,0,0,1,.46-1c.11-.23.22-.35.34-.58s.23-.34.34-.57.35-.57.58-.8.23-.23.23-.35c.23-.23.46-.57.68-.8l.35-.34.57-.58c.23-.23.46-.34.69-.57s.23-.12.34-.23a.87.87,0,0,1,.46-.23Z"/><path class="cls-1" d="M76.3,57a18,18,0,0,1-3.78,2.87L70.8,66.1l-4-4.13a17.57,17.57,0,0,1-6.88,0l-4,4.13-1.72-6.2A18.11,18.11,0,0,1,50.38,57v2.18a.66.66,0,0,0,.12.46l2.86,10.44a1.76,1.76,0,0,0,1.27,1.26h.45a1.88,1.88,0,0,0,1.27-.57l6-6.2h2.18l6,6.2a1.65,1.65,0,0,0,1.72.46A1.77,1.77,0,0,0,73.44,70L76.3,59.56c0-.12.12-.35.12-.46V57Z"/><path class="cls-1" d="M48,48.43l3.33,4.36a15.44,15.44,0,0,0,12,6,15.1,15.1,0,0,0,12-6l3.32-4.36a15.38,15.38,0,0,0,3.1-7.91V35.93H78.25v3.33a9.63,9.63,0,0,1-.11,1.83A12.14,12.14,0,0,1,76,46.25l-3.33,4.36a11.47,11.47,0,0,1-18.35,0L51,46.25a12,12,0,0,1-2.4-7V35.93H44.88v3.33A15.5,15.5,0,0,0,48,48.43Z"/><path class="cls-1" d="M42.12,32.26H84.56a4.37,4.37,0,0,0,0-8.72h-.11A21.49,21.49,0,0,0,69.54,6.34a4.21,4.21,0,0,0-3.9-2.41H61.05a4.31,4.31,0,0,0-3.9,2.52A21.22,21.22,0,0,0,42.47,23.54h-.12a4.24,4.24,0,0,0-4.13,4.36A3.93,3.93,0,0,0,42.12,32.26Zm0-5.16H84.45c.34,0,.57.34.57.8a.77.77,0,0,1-.57.8H42.24c-.35,0-.58-.34-.58-.8S41.78,27.1,42.12,27.1ZM56.57,10.35V14a1.7,1.7,0,0,0,1.73,1.72A1.77,1.77,0,0,0,60,14V8.29a.79.79,0,0,1,.8-.81h4.59a.79.79,0,0,1,.8.81V14a1.69,1.69,0,0,0,1.72,1.72A1.76,1.76,0,0,0,69.65,14V10.24a17.75,17.75,0,0,1,10.78,13.3H45.91A17.68,17.68,0,0,1,56.57,10.35Z"/></svg>