<svg id="Layer_1" data-name="Layer 1" xmlns="http://www.w3.org/2000/svg" viewBox="0 0 22 22"><defs><style>.cls-1{fill:#fff;}</style></defs><title>Artboard 1</title><path class="cls-1" d="M11,0A11,11,0,1,0,22,11,11,11,0,0,0,11,0Zm-.47,14.68a2.24,2.24,0,0,0,2.08-3.76.58.58,0,0,1-.17-.62.59.59,0,0,1,1-.26,3.37,3.37,0,0,1,1,2.16c0,.1,0,.19,0,.29a3.46,3.46,0,0,1-6.86.63,3.37,3.37,0,0,1,.93-3.06.6.6,0,1,1,.88.83,2.33,2.33,0,0,0-.63,1.26A2.22,2.22,0,0,0,10.53,14.68ZM10.39,11V9.28a.59.59,0,0,1,.19-.43.61.61,0,0,1,.86,0,.58.58,0,0,1,.16.4c0,1.12,0,2.25,0,3.37a.61.61,0,0,1-1.21,0V11Zm5.73,7.33a5,5,0,0,0,.65-2.45V11a5,5,0,0,0-5-5H10.24a5,5,0,0,0-5,5v4.79a5,5,0,0,0,.65,2.45,8.91,8.91,0,1,1,10.24,0Z"/></svg>