<svg id="Layer_1" data-name="Layer 1" xmlns="http://www.w3.org/2000/svg" viewBox="0 0 22 22"><defs><style>.cls-1{fill:#fff;}</style></defs><title>Artboard 1</title><path class="cls-1" d="M11.05,0a11,11,0,1,0,11,11A11,11,0,0,0,11.05,0Zm5.32,18.13-.69-2.89a3.29,3.29,0,0,0,1.14-2.42V9.18c0-2.11-2.25-3.82-5-3.82H10.29c-2.77,0-5,1.71-5,3.82v3.64c0,2.11,2.24,3.82,5,3.82h1.52a6.59,6.59,0,0,0,1.09-.1l2.4,2.29a8.82,8.82,0,0,1-4.25,1.08,8.95,8.95,0,1,1,5.32-1.78ZM15,11.05a.85.85,0,0,1-.85.85.86.86,0,0,1-.85-.85.85.85,0,0,1,1.7,0Zm-3.08,0a.85.85,0,1,1-.85-.85A.85.85,0,0,1,11.9,11.05Zm-3.08,0a.85.85,0,1,1-1.7,0A.86.86,0,0,1,8,10.2.85.85,0,0,1,8.82,11.05Z"/></svg>