<svg id="Layer_1" data-name="Layer 1" xmlns="http://www.w3.org/2000/svg" viewBox="0 0 22 22"><defs><style>.cls-1{fill:#fff;}</style></defs><title>Artboard 1</title><path class="cls-1" d="M11,0A11,11,0,1,0,22,11,11,11,0,0,0,11,0Zm.35,16.21V12c0-.21.29-.37.64-.37h1.35c.35,0,.64.16.64.37v4.21c0,.2-.29.37-.64.37H12C11.64,16.58,11.35,16.41,11.35,16.21Zm4.4,2.32V13.71h0v-2h.88a.77.77,0,0,0,.81-.73v-.48a1.27,1.27,0,0,0-.53-1.08l-5-3.89a1.45,1.45,0,0,0-1.84,0l-5,3.9a1.13,1.13,0,0,0-.46.71,4.24,4.24,0,0,0-.05.71.77.77,0,0,0,.85.86h.84v6.81a8.91,8.91,0,1,1,9.5,0Z"/></svg>