<svg id="Layer_1" data-name="Layer 1" xmlns="http://www.w3.org/2000/svg" viewBox="0 0 93.16 100.33"><defs><style>.cls-1{fill:#fff;}</style></defs><title>Artboard 1</title><path class="cls-1" d="M46.58,0A33.38,33.38,0,0,0,14.49,23.59a8.79,8.79,0,0,0-7.32,8.66v7.16a9,9,0,0,0,9,9h.95a1.79,1.79,0,1,0,0-3.58h-.95a5.33,5.33,0,0,1-5.37-5.38V32.25a5.29,5.29,0,0,1,5.09-5.36,1.79,1.79,0,0,0,1.74-1.33,29.8,29.8,0,0,1,29-22,29.79,29.79,0,0,1,29,22,1.79,1.79,0,0,0,1.74,1.33,5.29,5.29,0,0,1,5.09,5.36v7.16A5.32,5.32,0,0,1,77,44.79a1.78,1.78,0,0,0-1.79,1.77,2.56,2.56,0,0,1-1.11,2.2c-.9.7-2.72,1.4-6.06,1.4H57.24a4.51,4.51,0,0,0-4.39-3.58H47.48A4.51,4.51,0,0,0,43,51.06v1.79a4.51,4.51,0,0,0,4.48,4.48h5.37a4.51,4.51,0,0,0,4.39-3.58H68.08c3.83,0,6.48-.77,8.25-2.15a6.06,6.06,0,0,0,2.16-3.53A8.86,8.86,0,0,0,86,39.41V32.25a8.8,8.8,0,0,0-7.33-8.66A33.38,33.38,0,0,0,46.58,0Zm0,7.17A26.84,26.84,0,0,0,19.71,34v5.37A26.78,26.78,0,0,0,27.22,58l-3.15,3.15a1.79,1.79,0,0,0-.51,2.48,1.3,1.3,0,0,0,.26.31L39.94,80.1a1.79,1.79,0,0,0,2.53,0L46.58,76l4.11,4.11a1.79,1.79,0,0,0,2.53,0L69.09,64.22a1.78,1.78,0,0,0,.81-1.53h0a1.78,1.78,0,0,0-.82-1.5l-4.14-4.12a1.78,1.78,0,0,0-1.87-.79,1.7,1.7,0,0,0-1,.6A23.31,23.31,0,0,1,23.29,39.42v-.34a10.53,10.53,0,0,0,3.36-1.85c2.33-1.86,4.78-5.64,6.62-11.65a33.85,33.85,0,0,0,13.31,3.09,33.81,33.81,0,0,0,13.31-3.09c1.84,6,4.29,9.79,6.62,11.65a10.84,10.84,0,0,0,3.36,1.85v.34a23.5,23.5,0,0,1-.53,5,1.79,1.79,0,0,0,3.5.76h0a27.39,27.39,0,0,0,.61-5.76V34A26.84,26.84,0,0,0,46.58,7.17Zm0,3.58A23.2,23.2,0,0,1,69.87,34v1.13a7.65,7.65,0,0,1-1.12-.74c-1.87-1.5-4.37-4.68-6.1-11.57a1.79,1.79,0,0,0-2.17-1.31,1.77,1.77,0,0,0-.45.18,32.06,32.06,0,0,1-13.45,3.35,32.06,32.06,0,0,1-13.45-3.35,1.73,1.73,0,0,0-.86-.23,1.79,1.79,0,0,0-1.76,1.36c-1.72,6.89-4.22,10.07-6.1,11.57a7.65,7.65,0,0,1-1.12.74V34A23.2,23.2,0,0,1,46.58,10.75Zm.9,39.41h5.37a.86.86,0,0,1,.9.9v1.79a.86.86,0,0,1-.9.9H47.48a.86.86,0,0,1-.9-.9V51.06A.86.86,0,0,1,47.48,50.16ZM29.87,60.45A27.64,27.64,0,0,0,33.71,63a2.59,2.59,0,0,0,.32.42l10,10L41.21,76.3,27.62,62.7Zm33.42,0,2.25,2.25L52,76.29l-2.85-2.84,10-10a1.63,1.63,0,0,0,.33-.45A26.43,26.43,0,0,0,63.29,60.46ZM74.52,63.8a1.79,1.79,0,0,0-.79,3.35A32.15,32.15,0,0,1,89.58,95v1.79h-86V95a32.15,32.15,0,0,1,15.85-27.8,1.79,1.79,0,0,0-.85-3.34,1.75,1.75,0,0,0-1,.26A35.76,35.76,0,0,0,0,95v3.59a1.79,1.79,0,0,0,1.79,1.79H91.37a1.79,1.79,0,0,0,1.79-1.79V95A35.76,35.76,0,0,0,75.55,64.07,1.77,1.77,0,0,0,74.52,63.8Zm-33.08,2a26.57,26.57,0,0,0,10.26,0l-5.12,5.12Z"/></svg>