<svg id="Layer_1" data-name="Layer 1" xmlns="http://www.w3.org/2000/svg" viewBox="0 0 22 22"><defs><style>.cls-1{fill:#fff;}</style></defs><title>Artboard 1</title><path class="cls-1" d="M11,0A11,11,0,1,0,22,11,11,11,0,0,0,11,0Zm5.69,17.86V14.55a.32.32,0,0,1,.25-.32l.11,0a.71.71,0,0,0,.54-.68V11.44a1.25,1.25,0,0,0-1.27-1.27h-1.4a1.34,1.34,0,0,0-.8.28,1.57,1.57,0,0,1,.06.49v2.21a1.42,1.42,0,0,1-.31.9.77.77,0,0,0,.3.15l.11,0a.33.33,0,0,1,.25.32v4.63a9.07,9.07,0,0,1-2,.6V14.29a.35.35,0,0,1,.28-.35l.13,0a.76.76,0,0,0,.57-.74V10.94a1.42,1.42,0,0,0-1.4-1.42H10.61a1.41,1.41,0,0,0-1.41,1.4v2.22a.76.76,0,0,0,.58.74l.13,0a.36.36,0,0,1,.28.35v5.61a8.23,8.23,0,0,1-2-.44V14.57a.31.31,0,0,1,.25-.32l.11,0a.79.79,0,0,0,.3-.16,1.42,1.42,0,0,1-.31-.89V10.94h0a1.94,1.94,0,0,1,.05-.49,1.2,1.2,0,0,0-.8-.28H6.37a1.29,1.29,0,0,0-1.29,1.29v2.07a.74.74,0,0,0,.54.69l.11,0a.32.32,0,0,1,.25.32v3.79a8.91,8.91,0,1,1,10.71-.5Z"/><path class="cls-1" d="M7.07,6.61a1.56,1.56,0,0,0,0,3.11,1.56,1.56,0,1,0,0-3.11Z"/><path class="cls-1" d="M15.62,6.61a1.56,1.56,0,1,0,1.56,1.55A1.55,1.55,0,0,0,15.62,6.61Z"/><path class="cls-1" d="M11.35,5.68a1.7,1.7,0,1,0,1.7,1.7A1.7,1.7,0,0,0,11.35,5.68Z"/></svg>